<svg width="20" height="20" viewBox="0 0 20 20" fill="none" xmlns="http://www.w3.org/2000/svg">
<path d="M19.0709 0.995496C19.4731 1.39772 19.5066 2.02902 19.1714 2.46942L19.0709 2.58448L2.65137 19.004C2.21259 19.4428 1.50118 19.4428 1.06239 19.004C0.66017 18.6018 0.626651 17.9705 0.961835 17.5301L1.06239 17.415L17.4819 0.995496C17.9207 0.55671 18.6321 0.55671 19.0709 0.995496Z" fill="white"/>
<path d="M19.0709 19.004C18.6687 19.4062 18.0374 19.4397 17.597 19.1045L17.4819 19.004L1.06239 2.58448C0.623604 2.14569 0.623604 1.43428 1.06239 0.995497C1.46461 0.593277 2.09591 0.559758 2.53631 0.894941L2.65137 0.995497L19.0709 17.415C19.5097 17.8538 19.5097 18.5652 19.0709 19.004Z" fill="white"/>
<path fill-rule="evenodd" clip-rule="evenodd" d="M18.6466 1.41976C18.4421 1.21529 18.1106 1.21529 17.9062 1.41976L10.9152 8.41076L11.6556 9.15121L18.6324 2.17446L18.7037 2.09279C18.8491 1.88875 18.8297 1.60285 18.6466 1.41976ZM12.5041 9.99974L19.5094 2.99449L19.6366 2.84896L19.6489 2.8328C20.1634 2.15675 20.1125 1.18859 19.4951 0.571232C18.822 -0.101869 17.7307 -0.101869 17.0576 0.571232L10.0666 7.56223L3.06138 0.556977L2.91585 0.429793L2.89969 0.417495C2.22364 -0.0970376 1.25548 -0.0461227 0.638126 0.571233C-0.0349738 1.24433 -0.0349749 2.33564 0.638126 3.00874L7.62912 9.99974L0.623869 17.005L0.496685 17.1505L0.484388 17.1667C-0.0301443 17.8427 0.0207707 18.8109 0.638126 19.4282C1.31123 20.1013 2.40254 20.1013 3.07564 19.4282L10.0666 12.4373L17.0719 19.4425L17.2174 19.5697L17.2336 19.582C17.9096 20.0965 18.8778 20.0456 19.4951 19.4282C20.1682 18.7551 20.1682 17.6638 19.4951 16.9907L12.5041 9.99974ZM10.8071 9.99974L10.0666 9.25928L9.32618 9.99974L10.0666 10.7402L10.8071 9.99974ZM10.9152 11.5887L11.6556 10.8483L18.6466 17.8393C18.8511 18.0437 18.8511 18.3752 18.6466 18.5797C18.4635 18.7628 18.1776 18.7822 17.9736 18.6369L17.8919 18.5655L10.9152 11.5887ZM9.21811 11.5887L8.47765 10.8483L1.5009 17.825L1.42952 17.9067C1.28421 18.1107 1.30357 18.3966 1.48665 18.5797C1.69113 18.7842 2.02264 18.7842 2.22711 18.5797L9.21811 11.5887ZM8.47765 9.15121L9.2181 8.41076L2.24136 1.43402L2.15968 1.36263C1.95564 1.21732 1.66974 1.23668 1.48665 1.41976C1.28218 1.62423 1.28218 1.95575 1.48665 2.16022L8.47765 9.15121Z" fill="white"/>
</svg>
